Coordinates
nRows=252
nColumns=2
inDegrees=yes
endheader
time	ankle_angle_r	
3.45968	  9.363928	
3.49294	  9.394348	
3.52621	  9.323120	
3.55948	  9.378896	
3.59274	  9.373444	
3.62601	  9.328572	
3.65927	  9.313411	
3.69254	  9.262085	
3.72581	  9.235341	
3.75907	  9.302022	
3.79234	  9.258698	
3.8256	  9.268118	
3.85887	  9.277344	
3.89214	  9.283569	
3.9254	  9.185791	
3.95867	  9.286183	
3.99194	  9.283860	
4.0252	  9.246826	
4.05847	  9.214469	
4.09173	  9.251986	
4.125	  9.214855	
4.15827	  9.292603	
4.19153	  9.230501	
4.2248	  9.216309	
4.25806	  9.215629	
4.29133	  9.200563	
4.3246	  9.201050	
4.35786	  9.323120	
4.39113	  9.246826	
4.4244	  9.262085	
4.45766	  9.369858	
4.49093	  9.300569	
4.52419	  9.323987	
4.55746	  9.331280	
4.59073	  9.346635	
4.62399	  9.268991	
4.65726	  9.331570	
4.69052	  9.345091	
4.72379	  9.362281	
4.75706	  9.355859	
4.79032	  9.268507	
4.82359	  9.298928	
4.85685	  9.341180	
4.89012	  9.338379	
4.92339	  9.317084	
4.95665	  9.344317	
4.98992	  9.302019	
5.02319	  9.296371	
5.05645	  9.338379	
5.08972	  9.317568	
5.12298	  9.271889	
5.15625	  9.363538	
5.18952	  9.338379	
5.22278	  9.292603	
5.25605	  9.338379	
5.28931	  9.312834	
5.32258	  9.297478	
5.35585	  9.333600	
5.38911	  9.307861	
5.42238	  9.297188	
5.45565	  9.323120	
5.48891	  9.281735	
5.52218	  9.266380	
5.55544	  9.334181	
5.58871	  9.292603	
5.62198	  9.277344	
5.65524	  9.307861	
5.68851	  9.319308	
5.72177	  9.296318	
5.75504	  9.315884	
5.78831	  9.280866	
5.82157	  9.277344	
5.85484	  9.290657	
5.8881	  9.292603	
5.92137	  9.216309	
5.95464	  9.353638	
5.9879	  9.307861	
6.02117	  9.314586	
6.05444	  9.295351	
6.0877	  9.262085	
6.12097	  9.287493	
6.15423	  9.295061	
6.1875	  9.294964	
6.22077	  9.281874	
6.25403	  9.292603	
6.2873	  9.307861	
6.32056	  9.309836	
6.35383	  9.334622	
6.3871	  9.319557	
6.42036	  9.275659	
6.45363	  9.355226	
6.4869	  9.336887	
6.52016	  9.292603	
6.55343	  9.323120	
6.58669	  9.334775	
6.61996	  9.293707	
6.65323	  9.339387	
6.68649	  9.293513	
6.71976	  9.323120	
6.75302	  9.367461	
6.78629	  9.307861	
6.81956	  9.278393	
6.85282	  9.323120	
6.88609	  9.323451	
6.91935	  9.293072	
6.95262	  9.338516	
6.98589	  9.323079	
7.01915	  9.307861	
7.05242	  9.368591	
7.08569	  9.338379	
7.11895	  9.307861	
7.15222	  9.353638	
7.18548	  9.276265	
7.21875	  9.216945	
7.25202	  9.354370	
7.28528	  9.322291	
7.31855	  9.248678	
7.35181	  9.291580	
7.38508	  9.216309	
7.41835	  9.260869	
7.45161	  9.277344	
7.48488	  9.219127	
7.51815	  9.256062	
7.55141	  9.306259	
7.58468	  9.187490	
7.61794	  9.214513	
7.65121	  9.206728	
7.68448	  9.155273	
7.71774	  9.201050	
7.75101	  9.214126	
7.78427	  9.168253	
7.81754	  9.252581	
7.85081	  9.216309	
7.88407	  9.231567	
7.91734	  9.234234	
7.9506	  9.249589	
7.98387	  9.268765	
8.01714	  9.253216	
8.0504	  9.295655	
8.08367	  9.207349	
8.11694	  9.258839	
8.1502	  9.222995	
8.18347	  9.270464	
8.21673	  9.228031	
8.25	  9.296236	
8.28327	  9.269884	
8.31653	  9.262085	
8.3498	  9.246826	
8.38306	  9.262085	
8.41633	  9.246826	
8.4496	  9.262085	
8.48286	  9.196740	
8.51613	  9.272937	
8.5494	  9.240574	
8.58266	  9.211709	
8.61593	  9.272647	
8.64919	  9.297396	
8.68246	  9.231567	
8.71573	  9.277344	
8.74899	  9.323120	
8.78226	  9.257186	
8.81552	  9.323120	
8.84879	  9.378782	
8.88206	  9.332909	
8.91532	  9.353638	
8.94859	  9.363233	
8.98185	  9.332619	
9.01512	  9.384155	
9.04839	  9.362943	
9.08165	  9.319962	
9.11492	  9.390302	
9.14819	  9.353638	
9.18145	  9.347298	
9.21472	  9.366511	
9.24798	  9.381964	
9.28125	  9.323120	
9.31452	  9.345106	
9.34778	  9.375720	
9.38105	  9.338379	
9.41431	  9.331362	
9.44758	  9.368896	
9.48085	  9.338379	
9.51411	  9.360945	
9.54738	  9.376300	
9.58065	  9.315619	
9.61391	  9.361300	
9.64718	  9.338508	
9.68044	  9.300393	
9.71371	  9.293633	
9.74698	  9.292603	
9.78024	  9.231567	
9.81351	  9.238648	
9.84677	  9.231567	
9.88004	  9.277344	
9.91331	  9.238358	
9.94657	  9.307861	
9.97984	  9.207648	
10.0131	  9.283845	
10.0464	  9.283749	
10.0796	  9.201050	
10.1129	  9.228192	
10.1462	  9.262085	
10.1794	  9.195032	
10.2127	  9.296019	
10.246	  9.302036	
10.2792	  9.307861	
10.3125	  9.323120	
10.3458	  9.368896	
10.379	  9.323120	
10.4123	  9.338379	
10.4456	  9.312632	
10.4788	  9.323120	
10.5121	  9.338379	
10.5454	  9.328470	
10.5786	  9.292603	
10.6119	  9.358398	
10.6452	  9.313791	
10.6784	  9.333811	
10.7117	  9.349167	
10.745	  9.314371	
10.7782	  9.338379	
10.8115	  9.292603	
10.8448	  9.311946	
10.878	  9.346354	
10.9113	  9.334488	
10.9446	  9.330791	
10.9778	  9.307861	
11.0111	  9.361695	
11.0444	  9.323120	
11.0776	  9.289195	
11.1109	  9.335068	
11.1442	  9.240398	
11.1774	  9.201050	
11.2107	  9.323120	
11.244	  9.231567	
11.2772	  9.280171	
11.3105	  9.228837	
11.3437	  9.195782	
11.377	  9.216309	
11.4103	  9.246826	
11.4435	  9.190479	
11.4768	  9.249073	
11.5101	  9.216309	
11.5433	  9.198996	
11.5766	  9.244869	
11.6099	  9.258364	
11.6431	  9.211018	
11.6764	  9.187458	
11.7097	  9.245255	
11.7429	  9.188739	
11.7762	  9.260708	
11.8095	  9.249387	
